<?xml version="1.0" encoding="UTF-8" standalone="no"?>
<svg width="16px" height="24px" viewBox="0 0 16 24" version="1.1" xmlns="http://www.w3.org/2000/svg" xmlns:xlink="http://www.w3.org/1999/xlink" xmlns:sketch="http://www.bohemiancoding.com/sketch/ns">
    <!-- Generator: Sketch 3.3.2 (12043) - http://www.bohemiancoding.com/sketch -->
    <title>dlg_chain_bracket</title>
    <desc>Created with Sketch.</desc>
    <defs></defs>
    <g id="Page-1" stroke="none" stroke-width="1" fill="none" fill-rule="evenodd" sketch:type="MSPage">
        <g id="dlg_chain_bracket" sketch:type="MSArtboardGroup">
            <g id="Group" sketch:type="MSLayerGroup" transform="translate(1.000000, 4.000000)">
                <path d="M11.1839056,3.32438117 C11.4546421,3.52149229 11.5937501,3.88114943 11.59375,4.1098347 C11.5937499,4.4144185 11.59375,7.1425235 11.59375,7.42926381 C11.59375,7.75293537 11.4439332,8.03001986 11.1839056,8.22242428 C10.9238781,8.41482869 10.6011141,8.515625 10.0601658,8.515625 C9.51921749,8.515625 9.23194654,8.45181655 8.91833679,8.22242428 C8.60472704,7.993032 8.5,7.69833028 8.5,7.42926381 C8.5,7.12326609 8.5,4.45957868 8.5,4.1098347 C8.5,3.76009072 8.60472704,3.54865507 8.91833679,3.32438117 C9.23194653,3.10010726 9.49857157,3.03125 10.0601658,3.03125 C10.62176,3.03125 10.9131691,3.12727005 11.1839056,3.32438117 Z M10.6942047,3.91807133 C10.8519153,4.06861224 10.9329491,4.34329544 10.932949,4.51795068 C10.9329489,4.75057237 10.932949,6.83412509 10.932949,7.05311906 C10.932949,7.30031877 10.8456771,7.51193824 10.6942047,7.65888448 C10.5427324,7.80583071 10.3547145,7.8828125 10.039599,7.8828125 C9.72448349,7.8828125 9.55714119,7.83407967 9.3744559,7.65888448 C9.19177061,7.48368928 9.13076456,7.25861489 9.13076456,7.05311906 C9.13076456,6.81941751 9.13076456,4.78506284 9.13076456,4.51795068 C9.13076456,4.25083852 9.1917706,4.08935745 9.37445589,3.91807133 C9.55714118,3.74678522 9.71245674,3.69419643 10.039599,3.69419643 C10.3667413,3.69419643 10.5364941,3.76753042 10.6942047,3.91807133 Z" id="Path-294-Copy" stroke="#000000" stroke-width="0.5" fill="#FFFFFF" sketch:type="MSShapeGroup"></path>
                <path d="M11.1839056,9.37125617 C11.4546421,9.56836729 11.5937501,9.92802443 11.59375,10.1567097 C11.5937499,10.4612935 11.59375,13.1893985 11.59375,13.4761388 C11.59375,13.7998104 11.4439332,14.0768949 11.1839056,14.2692993 C10.9238781,14.4617037 10.6011141,14.5625 10.0601658,14.5625 C9.51921749,14.5625 9.23194654,14.4986916 8.91833679,14.2692993 C8.60472704,14.039907 8.5,13.7452053 8.5,13.4761388 C8.5,13.1701411 8.5,10.5064537 8.5,10.1567097 C8.5,9.80696572 8.60472704,9.59553007 8.91833679,9.37125617 C9.23194653,9.14698226 9.49857157,9.078125 10.0601658,9.078125 C10.62176,9.078125 10.9131691,9.17414505 11.1839056,9.37125617 Z M10.6942047,9.90467847 C10.8519153,10.0552194 10.9329491,10.3299026 10.932949,10.5045578 C10.9329489,10.7371795 10.932949,12.8207322 10.932949,13.0397262 C10.932949,13.2869259 10.8456771,13.4985454 10.6942047,13.6454916 C10.5427324,13.7924378 10.3547145,13.8694196 10.039599,13.8694196 C9.72448349,13.8694196 9.55714119,13.8206868 9.3744559,13.6454916 C9.19177061,13.4702964 9.13076456,13.245222 9.13076456,13.0397262 C9.13076456,12.8060247 9.13076456,10.77167 9.13076456,10.5045578 C9.13076456,10.2374457 9.1917706,10.0759646 9.37445589,9.90467847 C9.55714118,9.73339236 9.71245674,9.68080357 10.039599,9.68080357 C10.3667413,9.68080357 10.5364941,9.75413756 10.6942047,9.90467847 Z" id="Path-294-Copy-3" stroke="#000000" stroke-width="0.5" fill="#FFFFFF" sketch:type="MSShapeGroup"></path>
                <rect id="Rectangle-239" stroke="#000000" stroke-width="0.5" fill="#FFFFFF" sketch:type="MSShapeGroup" x="9.53125" y="6.078125" width="1.125" height="5.484375" rx="0.64"></rect>
                <path d="M0.384114583,0.01171875 C0.894533802,0.01171875 1.37760189,0.107420918 1.83333333,0.298828125 C2.28906478,0.490235332 2.68554519,0.751517441 3.02278646,1.08268229 C3.36002773,1.41384714 3.62738617,1.80121306 3.82486979,2.24479167 C4.02235342,2.68837027 4.12109375,3.16232387 4.12109375,3.66666667 C4.12109375,3.82465357 4.10590293,3.9826381 4.07552083,4.140625 C4.04513874,4.2986119 4.01019985,4.46874909 3.97070312,4.65104167 C3.9312064,4.83333424 3.89626751,5.03233399 3.86588542,5.24804688 C3.83550332,5.46375976 3.8203125,5.70833197 3.8203125,5.98177083 C3.8203125,6.29166822 3.87651854,6.58181288 3.98893229,6.85221354 C4.10134605,7.1226142 4.25629242,7.359591 4.45377604,7.56315104 C4.65125967,7.76671109 4.88064105,7.92773378 5.14192708,8.04622396 C5.40321311,8.16471413 5.68272421,8.22395833 5.98046875,8.22395833 L5.98046875,8.67057292 C5.68272421,8.67057292 5.40321311,8.72981712 5.14192708,8.84830729 C4.88064105,8.96679747 4.65125967,9.12630108 4.45377604,9.32682292 C4.25629242,9.52734475 4.10134605,9.76432155 3.98893229,10.0377604 C3.87651854,10.3111993 3.8203125,10.602863 3.8203125,10.9127604 C3.8203125,11.1558172 3.83550332,11.3776032 3.86588542,11.578125 C3.89626751,11.7786468 3.9312064,11.9700512 3.97070312,12.1523438 C4.01019985,12.3346363 4.04513874,12.5123689 4.07552083,12.6855469 C4.10590293,12.8587248 4.12109375,13.0394956 4.12109375,13.2278646 C4.12109375,13.7382838 4.02235342,14.2198328 3.82486979,14.672526 C3.62738617,15.1252193 3.36002773,15.5201806 3.02278646,15.8574219 C2.68554519,16.1946631 2.28906478,16.4620216 1.83333333,16.6595052 C1.37760189,16.8569888 0.894533802,16.9557292 0.384114583,16.9557292 L0.384114583,16.6184896 C0.712241224,16.5941839 1.02213396,16.5015199 1.31380208,16.3404948 C1.60547021,16.1794697 1.85915691,15.9728745 2.07486979,15.7207031 C2.29058268,15.4685317 2.46071986,15.176868 2.58528646,14.8457031 C2.70985305,14.5145383 2.77213542,14.1605922 2.77213542,13.7838542 C2.77213542,13.5590267 2.7569446,13.3509124 2.7265625,13.1595052 C2.6961804,12.968098 2.66124152,12.78277 2.62174479,12.6035156 C2.58224807,12.4242613 2.54730918,12.2465287 2.51692708,12.0703125 C2.48654499,11.8940963 2.47135417,11.7057302 2.47135417,11.5052083 C2.47135417,11.1649289 2.53667469,10.8276926 2.66731771,10.4934896 C2.79796072,10.1592865 2.9772124,9.85243195 3.20507812,9.57291667 C3.43294385,9.29340138 3.70030229,9.05034826 4.00716146,8.84375 C4.31402063,8.63715174 4.64366143,8.49131987 4.99609375,8.40625 C4.64366143,8.29687445 4.31402063,8.13433268 4.00716146,7.91861979 C3.70030229,7.70290691 3.43294385,7.4583347 3.20507812,7.18489583 C2.9772124,6.91145697 2.79796072,6.61827413 2.66731771,6.30533854 C2.53667469,5.99240295 2.47135417,5.6840293 2.47135417,5.38020833 C2.47135417,5.21614501 2.48654499,5.05056507 2.51692708,4.88346354 C2.54730918,4.71636201 2.58224807,4.54166758 2.62174479,4.359375 C2.66124152,4.17708242 2.6961804,3.984159 2.7265625,3.78059896 C2.7569446,3.57703891 2.77213542,3.35373385 2.77213542,3.11067708 C2.77213542,2.75824477 2.70985305,2.42100855 2.58528646,2.09895833 C2.46071986,1.77690811 2.29058268,1.48980161 2.07486979,1.23763021 C1.85915691,0.985458809 1.60547021,0.780382734 1.31380208,0.622395833 C1.02213396,0.464408932 0.712241224,0.370225846 0.384114583,0.33984375 L0.384114583,0.01171875 Z" id="}" fill="#000000" sketch:type="MSShapeGroup"></path>
            </g>
        </g>
    </g>
</svg>