<?xml version="1.0" encoding="UTF-8" standalone="no"?>
<svg width="16px" height="24px" viewBox="0 0 16 24" version="1.1" xmlns="http://www.w3.org/2000/svg" xmlns:xlink="http://www.w3.org/1999/xlink" xmlns:sketch="http://www.bohemiancoding.com/sketch/ns">
    <!-- Generator: Sketch 3.3.2 (12043) - http://www.bohemiancoding.com/sketch -->
    <title>dlg_chain_bracket_broken</title>
    <desc>Created with Sketch.</desc>
    <defs></defs>
    <g id="Page-1" stroke="none" stroke-width="1" fill="none" fill-rule="evenodd" sketch:type="MSPage">
        <g id="dlg_chain_bracket_broken" sketch:type="MSArtboardGroup">
            <g id="Group" sketch:type="MSLayerGroup" transform="translate(1.000000, 4.000000)">
                <g id="Group-Copy" transform="translate(10.343750, 9.046875) scale(-1, 1) translate(-10.343750, -9.046875) translate(6.843750, 2.046875)" sketch:type="MSShapeGroup">
                    <path d="M3.35727307,7.94755782 C3.60351901,8.12687551 3.73004345,8.45406602 3.73004332,8.66210764 C3.73004318,8.93919633 3.73004332,11.4210324 3.73004332,11.6818884 C3.73004332,11.9763418 3.59377876,12.2284136 3.35727307,12.4034494 C3.12076739,12.5784853 2.82720034,12.6701826 2.33518569,12.6701826 C1.84317104,12.6701826 1.58188634,12.6121342 1.29664543,12.4034494 C1.01140452,12.1947646 0.916150991,11.926666 0.916150991,11.6818884 C0.916150991,11.4035134 0.916150989,8.98027986 0.916150991,8.66210764 C0.916150992,8.34393541 1.01140452,8.15158628 1.29664543,7.94755782 C1.58188634,7.74352935 1.82439273,7.68088791 2.33518569,7.68088791 C2.84597865,7.68088791 3.11102713,7.76824012 3.35727307,7.94755782 Z M2.91187006,8.43282753 C3.05531429,8.56977896 3.12901785,8.81966622 3.12901777,8.97855514 C3.12901769,9.19017783 3.12901777,11.0856461 3.12901777,11.2848712 C3.12901777,11.5097559 3.04964036,11.7022723 2.91187006,11.8359535 C2.77409975,11.9696348 2.60308982,12.0396674 2.31647935,12.0396674 C2.02986887,12.0396674 1.87766419,11.9953337 1.71150444,11.8359535 C1.54534469,11.6765734 1.48985719,11.4718167 1.48985719,11.2848712 C1.48985719,11.0722661 1.48985719,9.22155481 1.48985719,8.97855514 C1.48985719,8.73555548 1.54534469,8.58865147 1.71150444,8.43282753 C1.87766419,8.2770036 2.01893005,8.22916205 2.31647935,8.22916205 C2.61402864,8.22916205 2.76842582,8.29587611 2.91187006,8.43282753 Z" id="Path-294-Copy-3" stroke="#000000" stroke-width="0.5" fill="#FFFFFF" transform="translate(2.323097, 10.175535) rotate(20.000000) translate(-2.323097, -10.175535) "></path>
                    <path d="M3.22639436,0.62773729 C3.4726403,0.807054984 3.59916474,1.13424549 3.5991646,1.34228711 C3.59916447,1.6193758 3.5991646,4.10121191 3.5991646,4.36206787 C3.5991646,4.65652125 3.46290005,4.90859304 3.22639436,5.0836289 C2.98988867,5.25866477 2.69632162,5.35036209 2.20430698,5.35036209 C1.71229233,5.35036209 1.45100763,5.2923137 1.16576672,5.0836289 C0.880525808,4.87494411 0.785272278,4.60684543 0.785272278,4.36206787 C0.785272278,4.08369288 0.785272276,1.66045933 0.785272278,1.34228711 C0.785272279,1.02411488 0.880525806,0.831765755 1.16576672,0.62773729 C1.45100763,0.423708825 1.69351402,0.36106738 2.20430698,0.36106738 C2.71509993,0.36106738 2.98014842,0.448419596 3.22639436,0.62773729 Z M2.78099134,1.113007 C2.92443558,1.24995843 2.99813914,1.49984569 2.99813906,1.65873461 C2.99813898,1.8703573 2.99813906,3.76582553 2.99813906,3.96505069 C2.99813906,4.18993542 2.91876165,4.38245178 2.78099134,4.51613302 C2.64322104,4.64981426 2.47221111,4.71984683 2.18560063,4.71984683 C1.89899016,4.71984683 1.74678548,4.67551316 1.58062573,4.51613302 C1.41446597,4.35675287 1.35897848,4.15199619 1.35897848,3.96505069 C1.35897848,3.75244562 1.35897848,1.90173428 1.35897848,1.65873461 C1.35897848,1.41573495 1.41446597,1.26883094 1.58062573,1.113007 C1.74678548,0.957183068 1.88805134,0.909341524 2.18560063,0.909341524 C2.48314993,0.909341524 2.63754711,0.976055579 2.78099134,1.113007 Z" id="Path-294-Copy-5" stroke="#000000" stroke-width="0.5" fill="#FFFFFF" transform="translate(2.192218, 2.855715) rotate(-20.000000) translate(-2.192218, -2.855715) "></path>
                    <path d="M2.61786183,6.1669337 L2.61786183,4.19824462 C2.61786183,4.05735872 2.73694671,3.94314813 2.88884608,3.94314813 L3.20332163,3.94314813 C3.35298209,3.94314813 3.47430587,4.06270851 3.47430587,4.19824462 L3.47430587,6.1669337 L3.04608385,6.1669337 L2.61786183,6.1669337 Z" id="Rectangle-240" stroke="#000000" stroke-width="0.5" fill="#FFFFFF" transform="translate(3.046084, 5.206884) rotate(-21.000000) translate(-3.046084, -5.206884) "></path>
                    <path d="M2.67450941,8.95410599 L2.67450941,6.9854169 C2.67450941,6.844531 2.79359429,6.73032042 2.94549366,6.73032042 L3.2599692,6.73032042 C3.40962967,6.73032042 3.53095345,6.84988079 3.53095345,6.9854169 L3.53095345,8.95410599 L3.10273143,8.95410599 L2.67450941,8.95410599 Z" id="Rectangle-240-Copy" stroke="#000000" stroke-width="0.5" fill="#FFFFFF" transform="translate(3.102731, 7.994056) rotate(-159.000000) translate(-3.102731, -7.994056) "></path>
                    <rect id="Rectangle-242" fill="#000000" transform="translate(5.294389, 5.481566) rotate(-36.000000) translate(-5.294389, -5.481566) " x="4.31279868" y="5.23156631" width="1.96318069" height="0.5"></rect>
                    <rect id="Rectangle-242-Copy" fill="#000000" transform="translate(5.264715, 7.891131) scale(1, -1) rotate(-36.000000) translate(-5.264715, -7.891131) " x="4.28312505" y="7.64113084" width="1.96318069" height="0.5"></rect>
                    <rect id="Rectangle-242-Copy-2" fill="#000000" transform="translate(5.605117, 6.675750) scale(1, -1) translate(-5.605117, -6.675750) " x="4.62352671" y="6.4257497" width="1.96318069" height="0.5"></rect>
                </g>
                <path d="M0.384114583,0.01171875 C0.894533802,0.01171875 1.37760189,0.107420918 1.83333333,0.298828125 C2.28906478,0.490235332 2.68554519,0.751517441 3.02278646,1.08268229 C3.36002773,1.41384714 3.62738617,1.80121306 3.82486979,2.24479167 C4.02235342,2.68837027 4.12109375,3.16232387 4.12109375,3.66666667 C4.12109375,3.82465357 4.10590293,3.9826381 4.07552083,4.140625 C4.04513874,4.2986119 4.01019985,4.46874909 3.97070312,4.65104167 C3.9312064,4.83333424 3.89626751,5.03233399 3.86588542,5.24804688 C3.83550332,5.46375976 3.8203125,5.70833197 3.8203125,5.98177083 C3.8203125,6.29166822 3.87651854,6.58181288 3.98893229,6.85221354 C4.10134605,7.1226142 4.25629242,7.359591 4.45377604,7.56315104 C4.65125967,7.76671109 4.88064105,7.92773378 5.14192708,8.04622396 C5.40321311,8.16471413 5.68272421,8.22395833 5.98046875,8.22395833 L5.98046875,8.67057292 C5.68272421,8.67057292 5.40321311,8.72981712 5.14192708,8.84830729 C4.88064105,8.96679747 4.65125967,9.12630108 4.45377604,9.32682292 C4.25629242,9.52734475 4.10134605,9.76432155 3.98893229,10.0377604 C3.87651854,10.3111993 3.8203125,10.602863 3.8203125,10.9127604 C3.8203125,11.1558172 3.83550332,11.3776032 3.86588542,11.578125 C3.89626751,11.7786468 3.9312064,11.9700512 3.97070312,12.1523438 C4.01019985,12.3346363 4.04513874,12.5123689 4.07552083,12.6855469 C4.10590293,12.8587248 4.12109375,13.0394956 4.12109375,13.2278646 C4.12109375,13.7382838 4.02235342,14.2198328 3.82486979,14.672526 C3.62738617,15.1252193 3.36002773,15.5201806 3.02278646,15.8574219 C2.68554519,16.1946631 2.28906478,16.4620216 1.83333333,16.6595052 C1.37760189,16.8569888 0.894533802,16.9557292 0.384114583,16.9557292 L0.384114583,16.6184896 C0.712241224,16.5941839 1.02213396,16.5015199 1.31380208,16.3404948 C1.60547021,16.1794697 1.85915691,15.9728745 2.07486979,15.7207031 C2.29058268,15.4685317 2.46071986,15.176868 2.58528646,14.8457031 C2.70985305,14.5145383 2.77213542,14.1605922 2.77213542,13.7838542 C2.77213542,13.5590267 2.7569446,13.3509124 2.7265625,13.1595052 C2.6961804,12.968098 2.66124152,12.78277 2.62174479,12.6035156 C2.58224807,12.4242613 2.54730918,12.2465287 2.51692708,12.0703125 C2.48654499,11.8940963 2.47135417,11.7057302 2.47135417,11.5052083 C2.47135417,11.1649289 2.53667469,10.8276926 2.66731771,10.4934896 C2.79796072,10.1592865 2.9772124,9.85243195 3.20507812,9.57291667 C3.43294385,9.29340138 3.70030229,9.05034826 4.00716146,8.84375 C4.31402063,8.63715174 4.64366143,8.49131987 4.99609375,8.40625 C4.64366143,8.29687445 4.31402063,8.13433268 4.00716146,7.91861979 C3.70030229,7.70290691 3.43294385,7.4583347 3.20507812,7.18489583 C2.9772124,6.91145697 2.79796072,6.61827413 2.66731771,6.30533854 C2.53667469,5.99240295 2.47135417,5.6840293 2.47135417,5.38020833 C2.47135417,5.21614501 2.48654499,5.05056507 2.51692708,4.88346354 C2.54730918,4.71636201 2.58224807,4.54166758 2.62174479,4.359375 C2.66124152,4.17708242 2.6961804,3.984159 2.7265625,3.78059896 C2.7569446,3.57703891 2.77213542,3.35373385 2.77213542,3.11067708 C2.77213542,2.75824477 2.70985305,2.42100855 2.58528646,2.09895833 C2.46071986,1.77690811 2.29058268,1.48980161 2.07486979,1.23763021 C1.85915691,0.985458809 1.60547021,0.780382734 1.31380208,0.622395833 C1.02213396,0.464408932 0.712241224,0.370225846 0.384114583,0.33984375 L0.384114583,0.01171875 Z" id="}" fill="#000000" sketch:type="MSShapeGroup"></path>
            </g>
        </g>
    </g>
</svg>